<svg xmlns="http://www.w3.org/2000/svg" viewBox="0 0 100 100" id="tajmahal">
  <path fill="#f1f1f2" d="M40.5 65.2h19v25h-19z"></path>
  <path fill="#fff" d="M57.5 65.2h2v25h-2z"></path>
  <path fill="#f1f1f2" d="M31.5 67.2h9v23h-9zM24.5 67.1h7v23.1h-7z"></path>
  <path fill="#fff" d="M29.5 67.1h2v23.1h-2z"></path>
  <path fill="#f1f1f2" d="m64.1 59.2 1.8 1.3c1.2.8 1.5 2.3.8 3.6l-.1.3h-2.5m0-5.2-1.8 1.3c-1.2.8-1.5 2.3-.8 3.6l.1.3h2.5"></path>
  <path fill="#f1f1f2" d="M66.5 68.266h-5v-4h5zM35.9 59.2l-1.8 1.3c-1.2.8-1.5 2.3-.8 3.6l.1.3h2.5"></path>
  <path fill="#f1f1f2" d="m35.9 59.2 1.8 1.3c1.2.8 1.5 2.3.8 3.6l-.1.3h-2.5M93.5 90.2h-4l1-34h2zM84.5 90.2h-4l1-24h2zM15.5 90.2h4l-1-24h-2zM6.5 90.2h4l-1-34h-2z"></path>
  <path fill="#d9d4d8" d="M6.8 80.2h3.4l-.1-2H6.8zM7.2 67.2h2.6l-.1-2H7.2zM9.5 58.2v-2h-2l-.1 2zM18.6 68.2l-.1-2h-2l-.1 2zM16.1 76.2h2.8l-.1-2h-2.7zM15.8 84.2h3.4l-.1-2h-3.3zM93.2 80.2h-3.4v-2h3.3zM92.8 67.2h-2.6v-2h2.5zM90.4 58.2l.1-2h2v2zM81.4 68.2l.1-2h2l.1 2zM83.9 76.2h-2.8v-2h2.7zM84.2 84.2h-3.4v-2h3.3z"></path>
  <path fill="#f1f1f2" d="M68.5 90.276h-9v-23h9zM75.5 90.228h-7v-22.9h7z"></path>
  <path fill="#8e7f8b" d="M66.5 79.2v-4.5c0-1.1-.6-2.2-1.5-2.8l-1-.6-1 .6c-1 .6-1.5 1.7-1.5 2.8v4.5h5zm7 0v-5.9c0-.7-.3-1.3-.9-1.7l-.6-.4-.6.4c-.6.4-.9 1-.9 1.7v5.9h3zm-7 11v-4.6c0-1.1-.6-2.2-1.5-2.8l-1-.6-1 .6c-1 .6-1.5 1.7-1.5 2.8v4.6m12 0v-5.9c0-.7-.3-1.3-.9-1.7l-.6-.4-.6.4c-.6.4-.9 1-.9 1.7v5.9h3z"></path>
  <path fill="#f1f1f2" d="M43.5 90V78.1c0-2.9 1.5-5.7 4-7.3l2.5-1.6 2.5 1.6c2.5 1.6 4 4.3 4 7.3V90"></path>
  <path fill="#d9d4d8" d="M43.5 79.2h13v2h-13zM40.5 65.2h19v2h-19z"></path>
  <path fill="#d9d4d8" d="M52.5 70.8 50 69.2l-1 .6 1.5.9c2.5 1.6 4 4.3 4 7.3v12h2V78.1c0-3-1.5-5.7-4-7.3z"></path>
  <path fill="#d9d4d8" d="m49.5 70.8 1.5-1-1-.6-2.5 1.6c-2.5 1.6-4 4.3-4 7.3V90h2V78.1c0-2.9 1.5-5.7 4-7.3z"></path>
  <path fill="#8e7f8b" d="M47.5 90.2v-4.6c0-1.1.6-2.2 1.5-2.8l1-.6 1 .6c1 .6 1.5 1.7 1.5 2.8v4.6h-5z"></path>
  <path fill="#7a6876" d="m51 82.8-1-.6-1 .6c-1 .6-1.5 1.7-1.5 2.8v2c0-1.1.6-2.2 1.5-2.8l1-.6 1 .6c1 .6 1.5 1.7 1.5 2.8v2.6-4.6c0-1.1-.6-2.1-1.5-2.8z"></path>
  <path fill="#8e7f8b" d="M47.5 79.2v-2.6c0-1.1.6-2.2 1.5-2.8l1-.6 1 .6c1 .6 1.5 1.7 1.5 2.8v2.6h-5z"></path>
  <path fill="#7a6876" d="m51 73.8-1-.6-1 .6c-1 .6-1.5 1.7-1.5 2.8v2c0-1.1.6-2.2 1.5-2.8l1-.6 1 .6c1 .6 1.5 1.7 1.5 2.8v-2c0-1.1-.6-2.1-1.5-2.8z"></path>
  <path fill="#8e7f8b" d="M33.5 79.2v-4.6c0-1.1.6-2.2 1.5-2.8l1-.6 1 .6c1 .6 1.5 1.7 1.5 2.8v4.6h-5zm-7 0v-5.9c0-.7.3-1.3.9-1.7l.6-.4.6.4c.6.4.9 1 .9 1.7v5.9h-3zm7 11v-4.6c0-1.1.6-2.2 1.5-2.8l1-.6 1 .6c1 .6 1.5 1.7 1.5 2.8v4.6h-5zm-7 0v-5.9c0-.7.3-1.3.9-1.7l.6-.4.6.4c.6.4.9 1 .9 1.7v5.9h-3z"></path>
  <path fill="#7a6876" d="m37 71.9-1-.6-1 .6c-1 .6-1.5 1.7-1.5 2.8v2c0-1.1.6-2.2 1.5-2.8l1-.6 1 .6c1 .6 1.5 1.7 1.5 2.8v-2c0-1.2-.6-2.2-1.5-2.8zm-8.4-.3-.6-.4-.6.4c-.6.4-.9 1-.9 1.7v2c0-.7.3-1.3.9-1.7l.6-.4.6.4c.6.4.9 1 .9 1.7v-2c0-.7-.3-1.3-.9-1.7zM37 82.9l-1-.6-1 .6c-1 .6-1.5 1.7-1.5 2.8v2c0-1.1.6-2.2 1.5-2.8l1-.6 1 .6c1 .6 1.5 1.7 1.5 2.8v-2c0-1.2-.6-2.2-1.5-2.8zm-8.4-.3-.6-.4-.6.4c-.6.4-.9 1-.9 1.7v2c0-.7.3-1.3.9-1.7l.6-.4.6.4c.6.4.9 1 .9 1.7v-2c0-.7-.3-1.3-.9-1.7zM63 71.9l1-.6 1 .6c1 .6 1.5 1.7 1.5 2.8v2c0-1.1-.6-2.2-1.5-2.8l-1-.6-1 .6c-1 .6-1.5 1.7-1.5 2.8v-2c0-1.2.6-2.2 1.5-2.8zm8.4-.3.6-.4.6.4c.6.4.9 1 .9 1.7v2c0-.7-.3-1.3-.9-1.7l-.6-.4-.6.4c-.6.4-.9 1-.9 1.7v-2c0-.7.3-1.3.9-1.7zM63 82.9l1-.6 1 .6c1 .6 1.5 1.7 1.5 2.8v2c0-1.1-.6-2.2-1.5-2.8l-1-.6-1 .6c-1 .6-1.5 1.7-1.5 2.8v-2c0-1.2.6-2.2 1.5-2.8zm8.4-.3.6-.4.6.4c.6.4.9 1 .9 1.7v2c0-.7-.3-1.3-.9-1.7l-.6-.4-.6.4c-.6.4-.9 1-.9 1.7v-2c0-.7.3-1.3.9-1.7z"></path>
  <path fill="#f1f1f2" d="m50 45.2 6.4 4.5c4 2.8 5.3 8.3 2.9 12.7l-.5.9H41.2l-.5-.9c-2.4-4.4-1.1-9.9 2.9-12.7l6.4-4.5"></path>
  <path fill="#fff" d="M56.4 49.7 50 45.2l-1 .7 5.4 3.8c4 2.8 5.3 8.3 2.9 12.7l-.5.9h2l.5-.9c2.4-4.4 1.1-9.9-2.9-12.7z"></path>
  <path fill="#d9d4d8" d="M40.5 65.2h2v25h-2zM31.5 67.2h2v23h-2zM24.5 67.2h2v23h-2z"></path>
  <path fill="#fff" d="M38.5 67.2h2v23h-2z"></path>
  <path fill="#d9d4d8" d="M59.5 67.3h2v22.9h-2zM68.5 67.2h2v23h-2z"></path>
  <path fill="#fff" d="M66.5 67.3h2v23h-2zM73.5 67.3h2v22.9h-2z"></path>
  <path fill="#d9d4d8" d="m45.6 49.7 5.4-3.8-1-.7-6.4 4.5c-4 2.8-5.3 8.3-2.9 12.7l.5.9h2l-.5-.9c-2.4-4.4-1.1-9.9 2.9-12.7z"></path>
  <path fill="#594454" d="M58.8 63.9H41.2c-.2 0-.4-.1-.4-.3l-.5-.9c-2.5-4.6-1.2-10.4 3.1-13.4l6.4-4.5c.2-.1.4-.1.6 0l6.4 4.5c4.3 3 5.6 8.7 3.1 13.4l-.5.9c-.3.2-.4.3-.6.3zm-17.3-1h17l.4-.7c2.3-4.2 1.1-9.4-2.8-12.1L50 45.8l-6.1 4.3c-3.8 2.7-5 7.9-2.8 12.1l.4.7z"></path>
  <path fill="#d9d4d8" d="m35.6 60.4.3-.2v-1l-1.8 1.3c-1.2.8-1.5 2.3-.8 3.6l.1.3h1.5l-.2-.4c-.6-1.3-.3-2.8.9-3.6z"></path>
  <path fill="#fff" d="m36.2 60.4-.3-.2v-1l1.8 1.3c1.2.8 1.5 2.3.8 3.6l-.1.3h-1.5l.1-.3c.8-1.4.4-2.9-.8-3.7z"></path>
  <path fill="#f1f1f2" d="M40.5 62.2h19v3h-19z"></path>
  <path fill="#d9d4d8" d="M40.5 62.2h2v3h-2z"></path>
  <path fill="#fff" d="M57.5 62.2h2v3h-2z"></path>
  <path fill="#d9d4d8" d="M40.5 62.2h19v1.5h-19z"></path>
  <path fill="#f1f1f2" d="M33.5 64.2h5v3h-5z"></path>
  <path fill="#d9d4d8" d="M33.5 64.1H35v3.1h-1.5z"></path>
  <path fill="#fff" d="M37 64.1h1.5v3H37z"></path>
  <path fill="#d9d4d8" d="m63.6 60.4.3-.2v-1l-1.8 1.3c-1.2.8-1.5 2.3-.8 3.6l.1.3h1.5l-.2-.4c-.6-1.3-.3-2.8.9-3.6z"></path>
  <path fill="#fff" d="m64.2 60.4-.3-.2v-1l1.8 1.3c1.2.8 1.5 2.3.8 3.6l-.1.3h-1.5l.1-.3c.8-1.4.4-2.9-.8-3.7z"></path>
  <path fill="#d9d4d8" d="M61.5 64.1H63v3.2h-1.5z"></path>
  <path fill="#fff" d="M65 64.1h1.5v3.1H65z"></path>
  <path fill="#f1f1f2" d="M9.5 56.2v-1.6c0-.5-.2-.9-.6-1.1l-.4-.2-.4.2c-.4.2-.6.7-.6 1.1v1.6m11 10v-1.6c0-.5-.2-.9-.6-1.1l-.4-.2-.4.2c-.4.2-.6.7-.6 1.1v1.6m74-10v-1.6c0-.5.2-.9.6-1.1l.4-.2.4.2c.4.2.6.7.6 1.1v1.6m-11 10v-1.6c0-.5.2-.9.6-1.1l.4-.2.4.2c.4.2.6.7.6 1.1v1.6"></path>
  <path fill="#594454" d="M88.7 90.7h-75c-.3 0-.5-.2-.5-.5s.2-.5.5-.5h75c.3 0 .5.2.5.5s-.2.5-.5.5zm-52.8-26h-2.5c-.2 0-.3-.1-.4-.3l-.1-.3c-.8-1.5-.4-3.3 1-4.2l1.8-1.3c.2-.2.5-.1.7.1.2.2.1.5-.1.7l-1.8 1.3c-1 .6-1.2 1.9-.7 2.9H36c.3 0 .5.2.5.5s-.3.6-.6.6z"></path>
  <path fill="#594454" d="M38.5 64.7H36c-.3 0-.5-.2-.5-.5s.2-.5.5-.5h2.2c.6-1 .3-2.3-.7-2.9l-1.8-1.3c-.2-.2-.3-.5-.1-.7.2-.2.5-.3.7-.1l1.8 1.3c1.4.9 1.8 2.8 1 4.2l-.1.3c-.2.1-.4.2-.5.2zm-28 26h-4c-.1 0-.3-.1-.4-.2-.1 0-.1-.1-.1-.3l1-34c0-.3.2-.5.5-.5h2c.3 0 .5.2.5.5l1 34c0 .1 0 .3-.1.4-.2.1-.3.1-.4.1zm-3.5-1h3l-1-33H8l-1 33zm12.5 1h-4c-.1 0-.3-.1-.4-.2-.1 0-.1-.2-.1-.3l1-24c0-.3.2-.5.5-.5h2c.3 0 .5.2.5.5l1 24c0 .1 0 .3-.1.4-.2.1-.3.1-.4.1zm-3.5-1h3l-1-23h-1l-1 23zm40.5.8c-.3 0-.5-.2-.5-.5V78.1c0-2.8-1.4-5.4-3.8-6.9L50 69.8l-2.3 1.4c-2.3 1.5-3.8 4.1-3.8 6.9V90c0 .3-.2.5-.5.5s-.4-.2-.4-.5V78.1c0-3.1 1.6-6 4.2-7.7l2.5-1.6c.2-.1.4-.1.5 0l2.5 1.6c2.7 1.7 4.2 4.6 4.2 7.7V90c.1.3-.1.5-.4.5z"></path>
  <path fill="#594454" d="M52.5 90.7h-5c-.3 0-.5-.2-.5-.5v-4.6c0-1.3.7-2.5 1.8-3.2l1-.6c.2-.1.4-.1.5 0l1 .6c1.1.7 1.8 1.9 1.8 3.2v4.6c-.1.3-.3.5-.6.5zm-4.5-1h4v-4.1c0-1-.5-1.9-1.3-2.4l-.7-.4-.7.5c-.8.5-1.3 1.4-1.3 2.4v4zm4.5-10h-5c-.3 0-.5-.2-.5-.5v-2.6c0-1.3.7-2.5 1.8-3.2l1-.6c.2-.1.4-.1.5 0l1 .6c1.1.7 1.8 1.9 1.8 3.2v2.6c-.1.3-.3.5-.6.5zm-4.5-1h4v-2.1c0-1-.5-1.9-1.3-2.4l-.7-.4-.7.5c-.8.5-1.3 1.4-1.3 2.4v2zm-9.5 1h-5c-.3 0-.5-.2-.5-.5v-4.6c0-1.3.7-2.5 1.8-3.2l1-.6c.2-.1.4-.1.5 0l1 .6c1.1.7 1.8 1.9 1.8 3.2v4.6c-.1.3-.3.5-.6.5zm-4.5-1h4v-4.1c0-1-.5-1.9-1.3-2.4l-.7-.4-.7.5c-.8.5-1.3 1.4-1.3 2.4v4z"></path>
  <path fill="#594454" d="M59.5 90.7h-19c-.3 0-.5-.2-.5-.5v-25c0-.3.2-.5.5-.5h19c.3 0 .5.2.5.5v25c0 .3-.2.5-.5.5zm-18.5-1h18v-24H41v24z"></path>
  <path fill="#594454" d="M59.5 65.7h-19c-.3 0-.5-.2-.5-.5v-3c0-.3.2-.5.5-.5h19c.3 0 .5.2.5.5v3c0 .3-.2.5-.5.5zm-18.5-1h18v-2H41v2zm-2.5 3h-5c-.3 0-.5-.2-.5-.5v-3c0-.3.2-.5.5-.5h5c.3 0 .5.2.5.5v3c0 .3-.2.5-.5.5zm-4.5-1h4v-2h-4v2z"></path>
  <path fill="#594454" d="M40.5 90.7h-9c-.3 0-.5-.2-.5-.5v-23c0-.3.2-.5.5-.5h9c.3 0 .5.2.5.5v23c0 .3-.2.5-.5.5zm-8.5-1h8v-22h-8v22z"></path>
  <path fill="#594454" d="M40.5 79.7h-7.8c-.3 0-.5-.2-.5-.5s.2-.5.5-.5h7.8c.3 0 .5.2.5.5s-.2.5-.5.5zm-11 0h-3c-.3 0-.5-.2-.5-.5v-5.9c0-.9.4-1.6 1.1-2.1l.6-.4c.2-.1.4-.1.5 0l.6.4c.7.5 1.2 1.3 1.2 2.1v5.9c0 .3-.2.5-.5.5zm-2.5-1h2v-5.4c0-.5-.3-1-.7-1.3l-.3-.2-.3.2c-.4.3-.7.7-.7 1.3v5.4zm11.5 12h-5c-.3 0-.5-.2-.5-.5v-4.6c0-1.3.7-2.5 1.8-3.2l1-.6c.2-.1.4-.1.5 0l1 .6c1.1.7 1.8 1.9 1.8 3.2v4.6c-.1.3-.3.5-.6.5zm-4.5-1h4v-4.1c0-1-.5-1.9-1.3-2.4l-.7-.4-.7.5c-.8.5-1.3 1.4-1.3 2.4v4zm-4.5 1h-3c-.3 0-.5-.2-.5-.5v-5.9c0-.9.4-1.6 1.1-2.1l.6-.4c.2-.1.4-.1.5 0l.6.4c.7.5 1.2 1.3 1.2 2.1v5.9c0 .3-.2.5-.5.5zm-2.5-1h2v-5.4c0-.5-.3-1-.7-1.3l-.3-.2-.3.2c-.4.3-.7.7-.7 1.3v5.4zm39.5-10h-5c-.3 0-.5-.2-.5-.5v-4.5c0-1.3.7-2.5 1.8-3.2l1-.6c.2-.1.4-.1.5 0l1 .6c1.1.7 1.8 1.9 1.8 3.2v4.5c-.1.2-.3.5-.6.5zm-4.5-1h4v-4c0-1-.5-1.9-1.3-2.4l-.7-.5-.7.4c-.8.5-1.3 1.4-1.3 2.4v4.1zm11.5 1h-3c-.3 0-.5-.2-.5-.5v-5.9c0-.9.4-1.6 1.2-2.1l.6-.4c.2-.1.4-.1.5 0l.6.4c.7.5 1.1 1.2 1.1 2.1v5.9c0 .3-.2.5-.5.5zm-2.5-1h2v-5.4c0-.5-.3-1-.7-1.3l-.3-.2-.3.2c-.4.3-.7.8-.7 1.3v5.4zm-4.5 12c-.3 0-.5-.2-.5-.5v-4.6c0-1-.5-1.9-1.3-2.4l-.7-.4-.7.4c-.8.5-1.3 1.4-1.3 2.4v4.6c0 .3-.2.5-.5.5s-.5-.2-.5-.5v-4.6c0-1.3.7-2.5 1.8-3.2l1-.6c.2-.1.4-.1.5 0l1 .6c1.1.7 1.8 1.9 1.8 3.2v4.6c-.1.3-.3.5-.6.5zm7 0h-3c-.3 0-.5-.2-.5-.5v-5.9c0-.9.4-1.6 1.2-2.1l.6-.4c.2-.1.4-.1.5 0l.6.4c.7.5 1.1 1.2 1.1 2.1v5.9c0 .3-.2.5-.5.5zm-2.5-1h2v-5.4c0-.5-.3-1-.7-1.3l-.3-.2-.3.2c-.4.3-.7.8-.7 1.3v5.4z"></path>
  <path fill="#594454" d="M31.5 90.7h-7c-.3 0-.5-.2-.5-.5v-23c0-.3.2-.5.5-.5h7c.3 0 .5.2.5.5v23c0 .3-.2.5-.5.5zm-6.5-1h6v-22h-6v22z"></path>
  <path fill="#594454" d="M32.7 79.7h-8c-.3 0-.5-.2-.5-.5s.2-.5.5-.5h8c.3 0 .5.2.5.5s-.2.5-.5.5zm23.8 0H43.7c-.3 0-.5-.2-.5-.5s.2-.5.5-.5h12.8c.3 0 .5.2.5.5s-.2.5-.5.5zM36 67.6c-.3 0-.5-.2-.5-.5v-.9c0-.3.2-.5.5-.5s.5.2.5.5v.9c0 .3-.2.5-.5.5zm30.6-2.9h-2.5c-.3 0-.5-.2-.5-.5s.2-.5.5-.5h2.2c.6-1 .3-2.3-.7-2.9l-1.8-1.3c-.2-.2-.3-.5-.1-.7.2-.2.5-.3.7-.1l1.8 1.3c1.4.9 1.8 2.8 1 4.2l-.2.3c0 .1-.2.2-.4.2z"></path>
  <path fill="#594454" d="M64.1 64.7h-2.5c-.2 0-.3-.1-.4-.3l-.1-.3c-.8-1.5-.4-3.3 1-4.2l1.8-1.3c.2-.2.5-.1.7.1.2.2.1.5-.1.7l-1.8 1.3c-1 .6-1.2 1.9-.7 2.9h2.2c.3 0 .5.2.5.5s-.4.6-.6.6z"></path>
  <path fill="#594454" d="M66.5 67.7h-5c-.3 0-.5-.2-.5-.5v-3c0-.3.2-.5.5-.5h5c.3 0 .5.2.5.5v3c0 .3-.2.5-.5.5zm-4.5-1h4v-2h-4v2z"></path>
  <path fill="#594454" d="M68.5 90.7h-9c-.3 0-.5-.2-.5-.5v-23c0-.3.2-.5.5-.5h9c.3 0 .5.2.5.5v23c0 .3-.2.5-.5.5zm-8.5-1h8v-22h-8v22z"></path>
  <path fill="#594454" d="M68.2 79.7h-8.8c-.3 0-.5-.2-.5-.5s.2-.5.5-.5h8.8c.3 0 .5.2.5.5s-.2.5-.5.5z"></path>
  <path fill="#594454" d="M75.5 90.7h-7c-.3 0-.5-.2-.5-.5v-23c0-.3.2-.5.5-.5h7c.3 0 .5.2.5.5v23c0 .3-.2.5-.5.5zm-6.5-1h6v-22h-6v22z"></path>
  <path fill="#594454" d="M75.2 79.7h-7c-.3 0-.5-.2-.5-.5s.2-.5.5-.5h7c.3 0 .5.2.5.5s-.2.5-.5.5zM64 67.3c-.3 0-.5-.2-.5-.5v-.6c0-.3.2-.5.5-.5s.5.2.5.5v.6c0 .3-.2.5-.5.5zM9.5 56.7c-.3 0-.5-.2-.5-.5v-1.6c0-.3-.1-.5-.4-.7l-.1-.1-.1.1c-.3.2-.4.4-.4.7v1.6c0 .3-.2.5-.5.5s-.5-.3-.5-.5v-1.6c0-.6.3-1.2.8-1.5l.4-.2c.2-.1.4-.1.5 0l.4.3c.6.2.9.8.9 1.4v1.6c0 .2-.2.5-.5.5zm9 10c-.3 0-.5-.2-.5-.5v-1.6c0-.3-.1-.5-.4-.7l-.1-.1-.1.1c-.2.2-.4.4-.4.7v1.6c0 .3-.2.5-.5.5s-.5-.3-.5-.5v-1.6c0-.6.3-1.2.8-1.5l.4-.2c.2-.1.4-.1.5 0l.4.3c.5.3.8.9.8 1.5v1.6c.1.1-.1.4-.4.4z"></path>
  <path fill="#594454" d="M8.5 53.7c-.3 0-.5-.2-.5-.5v-1c0-.3.2-.5.5-.5s.5.3.5.5v1c0 .3-.2.5-.5.5zm9 10c-.3 0-.5-.2-.5-.5v-1c0-.3.2-.5.5-.5s.5.3.5.5v1c0 .3-.2.5-.5.5zm7 4.5c-.3 0-.5-.2-.5-.5v-3.5c0-.3.2-.5.5-.5s.5.3.5.5v3.5c0 .3-.2.5-.5.5zm51 0c-.3 0-.5-.2-.5-.5v-3.5c0-.3.2-.5.5-.5s.5.3.5.5v3.5c0 .3-.2.5-.5.5zm-2-.5c-.3 0-.5-.2-.5-.5v-1.5c0-.3.2-.5.5-.5s.5.2.5.5v1.5c0 .3-.2.5-.5.5zm-47 0c-.3 0-.5-.2-.5-.5v-1.5c0-.3.2-.5.5-.5s.5.2.5.5v1.5c0 .3-.2.5-.5.5zm9.5-8c-.3 0-.5-.2-.5-.5v-2c0-.3.2-.5.5-.5s.5.2.5.5v2c0 .3-.2.5-.5.5zm6 6c-.3 0-.5-.2-.5-.5v-1c0-.3.2-.5.5-.5s.5.2.5.5v1c0 .3-.2.5-.5.5zm8.1-16c-.3 0-.5-.2-.5-.5v-1c0-.3.2-.5.5-.5s.5.2.5.5v1c0 .3-.3.5-.5.5zm-2 0c-.3 0-.5-.2-.5-.5v-1c0-.3.2-.5.5-.5s.5.2.5.5v1c0 .3-.3.5-.5.5zm-2 0c-.3 0-.5-.2-.5-.5v-1c0-.3.2-.5.5-.5s.5.2.5.5v1c0 .3-.3.5-.5.5zm6 0c-.3 0-.5-.2-.5-.5v-1c0-.3.2-.5.5-.5s.5.2.5.5v1c0 .3-.3.5-.5.5zm2 0c-.3 0-.5-.2-.5-.5v-1c0-.3.2-.5.5-.5s.5.2.5.5v1c0 .3-.3.5-.5.5zM44 65.7c-.3 0-.5-.2-.5-.5v-1c0-.3.2-.5.5-.5s.5.2.5.5v1c0 .3-.2.5-.5.5zm2 0c-.3 0-.5-.2-.5-.5v-1c0-.3.2-.5.5-.5s.5.2.5.5v1c0 .3-.2.5-.5.5zm2 0c-.3 0-.5-.2-.5-.5v-1c0-.3.2-.5.5-.5s.5.2.5.5v1c0 .3-.2.5-.5.5zm2 0c-.3 0-.5-.2-.5-.5v-1c0-.3.2-.5.5-.5s.5.2.5.5v1c0 .3-.2.5-.5.5zm2 0c-.3 0-.5-.2-.5-.5v-1c0-.3.2-.5.5-.5s.5.2.5.5v1c0 .3-.2.5-.5.5zm2 0c-.3 0-.5-.2-.5-.5v-1c0-.3.2-.5.5-.5s.5.2.5.5v1c0 .3-.2.5-.5.5zm2 0c-.3 0-.5-.2-.5-.5v-1c0-.3.2-.5.5-.5s.5.2.5.5v1c0 .3-.2.5-.5.5zm2 0c-.3 0-.5-.2-.5-.5v-1c0-.3.2-.5.5-.5s.5.2.5.5v1c0 .3-.2.5-.5.5zm6-6c-.3 0-.5-.2-.5-.5v-2c0-.3.2-.5.5-.5s.5.2.5.5v2c0 .3-.2.5-.5.5zm-14-14c-.3 0-.5-.2-.5-.5v-3c0-.3.2-.5.5-.5s.5.2.5.5v3c0 .3-.2.5-.5.5zm-40 11H7c-.3 0-.5-.2-.5-.5s.2-.5.5-.5h3c.3 0 .5.2.5.5s-.2.5-.5.5zm9 10h-3c-.3 0-.5-.2-.5-.5s.2-.5.5-.5h3c.3 0 .5.2.5.5s-.2.5-.5.5zm.5 8h-4c-.3 0-.5-.2-.5-.5s.2-.5.5-.5h4c.3 0 .5.2.5.5s-.2.5-.5.5zm.2 8h-4.5c-.3 0-.5-.2-.5-.5s.2-.5.5-.5h4.5c.3 0 .5.2.5.5s-.2.5-.5.5zm-9.2-17h-4c-.3 0-.5-.2-.5-.5s.2-.5.5-.5h4c.3 0 .5.2.5.5s-.2.5-.5.5zm85 25h-91c-.3 0-.5-.2-.5-.5s.2-.5.5-.5h91c.3 0 .5.2.5.5s-.2.5-.5.5zm-84.8-12H6.2c-.3 0-.5-.2-.5-.5s.2-.5.5-.5h4.5c.3 0 .5.2.5.5s-.2.5-.5.5z"></path>
  <path fill="#594454" d="M93.5 90.7h-4c-.1 0-.3-.1-.4-.2-.1 0-.1-.1-.1-.3l1-34c0-.3.2-.5.5-.5h2c.3 0 .5.2.5.5l1 34c0 .1 0 .3-.1.4-.1.1-.3.1-.4.1zm-3.5-1h3l-1-33h-1l-1 33zm-5.5 1h-4c-.1 0-.3-.1-.4-.2-.1 0-.1-.2-.1-.3l1-24c0-.3.2-.5.5-.5h2c.3 0 .5.2.5.5l1 24c0 .1 0 .3-.1.4-.1.1-.3.1-.4.1zm-3.5-1h3l-1-23h-1l-1 23z"></path>
  <path fill="#594454" d="M92.5 56.7c-.3 0-.5-.2-.5-.5v-1.6c0-.3-.1-.5-.4-.7l-.1-.1-.1.1c-.2.2-.4.4-.4.7v1.6c0 .3-.2.5-.5.5s-.5-.3-.5-.5v-1.6c0-.6.3-1.2.8-1.5l.4-.2c.2-.1.4-.1.5 0l.4.2c.5.3.8.9.8 1.5v1.6c.1.2-.1.5-.4.5zm-9 10c-.3 0-.5-.2-.5-.5v-1.6c0-.3-.1-.5-.4-.7l-.1-.1-.1.1c-.2.2-.4.4-.4.7v1.6c0 .3-.2.5-.5.5s-.5-.3-.5-.5v-1.6c0-.6.3-1.2.8-1.5l.4-.2c.2-.1.4-.1.5 0l.4.2c.5.3.8.9.8 1.5v1.6c.1.2-.1.5-.4.5z"></path>
  <path fill="#594454" d="M91.5 53.7c-.3 0-.5-.2-.5-.5v-1c0-.3.2-.5.5-.5s.5.3.5.5v1c0 .3-.2.5-.5.5zm-9 10c-.3 0-.5-.2-.5-.5v-1c0-.3.2-.5.5-.5s.5.3.5.5v1c0 .3-.2.5-.5.5zm10.5-7h-3c-.3 0-.5-.2-.5-.5s.2-.5.5-.5h3c.3 0 .5.2.5.5s-.2.5-.5.5zm-9 10h-3c-.3 0-.5-.2-.5-.5s.2-.5.5-.5h3c.3 0 .5.2.5.5s-.2.5-.5.5zm.5 8h-4c-.3 0-.5-.2-.5-.5s.2-.5.5-.5h4c.3 0 .5.2.5.5s-.2.5-.5.5zm.2 8h-4.5c-.3 0-.5-.2-.5-.5s.2-.5.5-.5h4.5c.3 0 .5.2.5.5s-.2.5-.5.5zm8.8-17h-4c-.3 0-.5-.2-.5-.5s.2-.5.5-.5h4c.3 0 .5.2.5.5s-.2.5-.5.5zm.2 13h-4.5c-.3 0-.5-.2-.5-.5s.2-.5.5-.5h4.5c.3 0 .5.2.5.5s-.2.5-.5.5zm-39.4-30h-8.6c-.3 0-.5-.2-.5-.5s.2-.5.5-.5h8.6c.3 0 .5.2.5.5s-.2.5-.5.5zM40.5 69.8H24.7c-.3 0-.5-.2-.5-.5s.2-.5.5-.5h15.8c.3 0 .5.2.5.5s-.2.5-.5.5zm35 0H59.7c-.3 0-.5-.2-.5-.5s.2-.5.5-.5h15.8c.3 0 .5.2.5.5s-.2.5-.5.5z"></path>
</svg>
